<?xml version="1.0" encoding="utf-8"?>
<!-- Generator: Adobe Illustrator 19.1.0, SVG Export Plug-In . SVG Version: 6.00 Build 0)  -->
<svg version="1.1" id="Layer_1" xmlns="http://www.w3.org/2000/svg" xmlns:xlink="http://www.w3.org/1999/xlink" x="0px" y="0px"
	 viewBox="0 0 475 50" style="enable-background:new 0 0 475 50;" xml:space="preserve">
<g>
	<path d="M22.5,23.9h2.9c3.7,0,7-2.5,7-7.7h0.6v17.6h-0.6c0-4.5-2.4-9.2-8-9.2h-1.9v13.9c0,3.9,1.3,4.9,4.1,4.9v0.5
		c0,0-4.8-0.2-10.6-0.2c-5.7,0-10.6,0.2-10.6,0.2v-0.5c2.8,0,4.1-2.6,4.1-6.9V10.8c0-3.9-1.3-4.9-4.1-4.9V5.4c0,0,4.8,0.2,10.6,0.2
		c4.9,0,13-0.1,22.4-0.2v11.8h-0.5C37.1,9.9,32.1,6,25.4,6c-1.3,0-2.5,0.2-2.9,0.3V23.9z"/>
	<path d="M64.4,25.3v0.2c7.1,0,11.4,1.5,13.2,8l1.7,6.3c0.4,1.8,1.5,3.2,3.2,3.2c0.3,0,0.7-0.1,1-0.2l0.1,0.4
		c-1.4,0.8-4.9,1.6-8.4,1.6c-6.5,0-10.6-2.4-11.4-8.4L63,30.2c-0.3-2.5-1.4-4.3-4.8-4.3v12.6c0,3.9,1.3,4.9,4.1,4.9v0.5
		c0,0-4.8-0.2-10.6-0.2c-5.7,0-10.6,0.2-10.6,0.2v-0.5c2.8,0,4.1-2.6,4.1-6.9V10.8c0-3.9-1.3-4.9-4.1-4.9V5.4c0,0,4.8,0.2,10.6,0.2
		c3.8,0,7-0.2,10.9-0.2c8.1,0,15.2,2.5,15.2,9.7C77.9,20.3,74.1,24.3,64.4,25.3z M58.2,25.1c4.5,0,6.5-3.5,6.5-10
		c0-5.3-1.6-9.1-5.1-9.1c-0.4,0-0.9,0.1-1.4,0.2V25.1z"/>
	<path d="M109.7,4.2l11.9,35.3c0.9,2.8,2.5,3.8,4.3,3.8v0.5c0,0-3-0.2-10.6-0.2c-7.4,0-10.3,0.2-10.3,0.2v-0.5c2.3,0,3-1.2,3-2.7
		c0-1.2-0.4-2.5-0.9-4.3l-2.4-8.2H93.6l-2.5,7.6c-0.5,1.8-0.8,3.1-0.8,4c0,2.8,1.7,3.6,4.9,3.6v0.5c0,0-3-0.2-6.7-0.2
		c-2.8,0-5.1,0.2-5.1,0.2v-0.5c3,0,5.3-2.9,6.9-7.6l9.8-28.6L109.7,4.2z M104.6,27.5l-5-16.7l-5.7,16.7H104.6z"/>
	<path d="M162.4,13.9c0-5.8-3.1-8-7.2-8V5.4c0,0,5.7,0.2,7.6,0.2c1.2,0,4.9-0.2,4.9-0.2v0.5c-2.5,0-4.8,2.1-4.8,8v30l-8.5,1L132,10
		v25.3c0,5.8,2.6,8,7.9,8v0.5c0,0-5.9-0.2-7.9-0.2c-1.2,0-4.7,0.2-4.7,0.2v-0.5c2.5,0,4.1-2.1,4.1-8V10.8c0-3.9-1.3-4.9-4.1-4.9V5.4
		c0,0,8.4,0.2,18.6,0.2c0.2,1.5,1.2,3.4,2.5,5.3l13.9,21V13.9z"/>
	<path d="M186.3,38.4c0,3.9,1.3,4.9,4.1,4.9v0.5c0,0-4.8-0.2-10.6-0.2c-5.7,0-10.6,0.2-10.6,0.2v-0.5c2.8,0,4.1-2.6,4.1-6.9V10.8
		c0-3.9-1.3-4.9-4.1-4.9V5.4c0,0,4.8,0.2,10.6,0.2c5.7,0,10.6-0.2,10.6-0.2v0.5c-2.8,0-4.1,2.6-4.1,6.9v11.6h1.8l7.4-8.4
		c3-3.3,3.7-5.1,3.7-6.8c0-2.1-1.9-3.4-4.1-3.4V5.4c0,0,3.2,0.2,9,0.2c5.4,0,7.8-0.2,7.8-0.2v0.5c-5.2,0-9.2,2.7-13.3,7.4l-2,2.3
		l14.2,23.8c1.3,2.1,2.5,3.3,4.4,3.3v0.4c0,0-3.1,1.8-8.5,1.8c-5.6,0-9.3-1.9-12-7.1L189,26.9c-0.7-1.3-1.4-1.9-2.7-1.9V38.4z"/>
	<path d="M236.7,5.9c-2.8,0-4.1,2.6-4.1,6.9v25.6c0,3.9,1.3,4.9,4.1,4.9c7.3,0,12-8.4,13.7-15.7h0.5l-2.3,16.3
		c-9.1,0-17.7-0.2-22.5-0.2c-9.8,0-10.6,0.2-10.6,0.2v-0.5c2.8,0,4.1-2.6,4.1-6.9V10.8c0-3.9-1.3-4.9-4.1-4.9V5.4
		c0,0,4.8,0.2,10.6,0.2c5.7,0,10.6-0.2,10.6-0.2V5.9z"/>
	<path d="M276.1,43.9c0,0-4.8-0.2-10.6-0.2c-5.7,0-10.6,0.2-10.6,0.2v-0.5c2.8,0,4.1-2.6,4.1-6.9V23.7l-9.3-14.8
		c-1.6-2.5-2.9-2.9-4.3-2.9V5.4c0,0,4.5,0.2,11,0.2c7.3,0,10.8-0.2,10.8-0.2v0.5c-1.8,0-2.9,1-2.9,2.4c0,1.2,0.6,2.4,1.3,3.7
		l5.7,10.3l3.8-6.9c1.4-2.5,2.4-4.6,2.4-6.3c0-1.9-1-3.3-4.8-3.3V5.4c0,0,2.5,0.2,7,0.2c3.2,0,5.3-0.2,5.3-0.2v0.5
		c-2.1,0-4.9,2-7.8,7.1l-5.3,9.4v15.9c0,3.9,1.3,4.9,4.1,4.9V43.9z"/>
	<path d="M321.9,13.9c0-5.8-3.1-8-7.2-8V5.4c0,0,5.7,0.2,7.6,0.2c1.2,0,4.9-0.2,4.9-0.2v0.5c-2.5,0-4.8,2.1-4.8,8v30l-8.5,1
		L291.5,10v25.3c0,5.8,2.6,8,7.9,8v0.5c0,0-5.9-0.2-7.9-0.2c-1.2,0-4.7,0.2-4.7,0.2v-0.5c2.5,0,4.1-2.1,4.1-8V10.8
		c0-3.9-1.3-4.9-4.1-4.9V5.4c0,0,8.4,0.2,18.6,0.2c0.2,1.5,1.2,3.4,2.5,5.3l13.9,21V13.9z"/>
	<path d="M379.5,5.4l0.2,0.5l-21.2,37.4l3.6-0.2c10-0.6,15.4-5.9,17.5-14.7h0.5l-2.1,15.5h-34.2l-0.2-0.5l21.6-37.4l-4.1,0.2
		c-7.9,0.4-13.5,2.8-15.7,12.6h-0.5l1.7-13.3H379.5z"/>
	<path d="M427.5,5.9c-2.8,0-4.1,2.6-4.1,6.9v25.6c0,3.9,1.3,4.9,4.1,4.9v0.5c0,0-4.8-0.2-10.6-0.2c-5.7,0-10.6,0.2-10.6,0.2v-0.5
		c2.8,0,4.1-2.6,4.1-6.9V24.1h-10.7v14.3c0,3.9,1.3,4.9,4.1,4.9v0.5c0,0-4.8-0.2-10.6-0.2c-5.7,0-10.6,0.2-10.6,0.2v-0.5
		c2.8,0,4.1-2.6,4.1-6.9V10.8c0-3.9-1.3-4.9-4.1-4.9V5.4c0,0,4.8,0.2,10.6,0.2c5.7,0,10.6-0.2,10.6-0.2v0.5c-2.8,0-4.1,2.6-4.1,6.9
		v10.7h10.7V10.8c0-3.9-1.3-4.9-4.1-4.9V5.4c0,0,4.8,0.2,10.6,0.2c5.7,0,10.6-0.2,10.6-0.2V5.9z"/>
	<path d="M465.2,13.9v17.4c0,12.1-6.6,13.4-15.2,13.4c-11.1,0-16.1-4.8-16.1-13.4V10.8c0-3.9-1.3-4.9-4.1-4.9V5.4
		c0,0,4.8,0.2,10.6,0.2c5.7,0,10.6-0.2,10.6-0.2v0.5c-2.8,0-4.1,2.6-4.1,6.9v18.6c0,8.4,2.9,11.7,8.9,11.7c5.5,0,8.9-3.5,8.9-11.7
		V13.9c0-5.8-3.1-8-7.1-8V5.4c0,0,5.7,0.2,7.6,0.2c1.2,0,4.9-0.2,4.9-0.2v0.5C467.5,5.9,465.2,8.1,465.2,13.9z"/>
</g>
</svg>
