<?xml version="1.0" encoding="utf-8"?>
<!-- Generator: Adobe Illustrator 19.1.0, SVG Export Plug-In . SVG Version: 6.00 Build 0)  -->
<svg version="1.1" id="Layer_1" xmlns="http://www.w3.org/2000/svg" xmlns:xlink="http://www.w3.org/1999/xlink" x="0px" y="0px"
	 viewBox="0 0 24 24" style="enable-background:new 0 0 24 24;" xml:space="preserve">
<style type="text/css">
	.st0{fill:#AAAAAA;}
</style>
<g>
	<g>
		<g id="circle_10_">
			<g>
				<path class="st0" d="M12.6,13.7c-0.3,0.3-0.8,0.3-1.1,0l-0.6-0.6l-2.3,2.2h6.8l-2.3-2.2L12.6,13.7z M16.6,8.6H7.5l4.5,4.5
					L16.6,8.6z M6.8,9v6.4h0.8l2.8-2.8L6.8,9z M16.5,15.4h0.7V9l-3.6,3.6L16.5,15.4z M12,0C5.4,0,0,5.4,0,12s5.4,12,12,12
					s12-5.4,12-12S18.6,0,12,0z M18,15.4c0,0.4-0.3,0.8-0.8,0.8H6.8c-0.4,0-0.8-0.3-0.8-0.8V8.6c0-0.4,0.3-0.8,0.8-0.8h10.5
					c0.4,0,0.8,0.3,0.8,0.8V15.4z"/>
			</g>
		</g>
	</g>
</g>
</svg>
