<?xml version="1.0" encoding="utf-8"?>
<!-- Generator: Adobe Illustrator 19.1.0, SVG Export Plug-In . SVG Version: 6.00 Build 0)  -->
<svg version="1.1" id="Layer_1" xmlns="http://www.w3.org/2000/svg" xmlns:xlink="http://www.w3.org/1999/xlink" x="0px" y="0px"
	 viewBox="0 0 24 24" style="enable-background:new 0 0 24 24;" xml:space="preserve">
<style type="text/css">
	.st0{fill:#AAAAAA;}
</style>
<g>
	<path class="st0" d="M12,0.1c-6.6,0-12,5.4-12,12C0,18,4.3,23,10,23.9v-9.3H7.1v-3.4H10V8.8c0-2.9,1.8-4.4,4.3-4.4
		c1.2,0,2.3,0.1,2.6,0.1v3l-1.8,0c-1.4,0-1.7,0.7-1.7,1.6v2.1h3.3l-0.4,3.4h-2.9V24C19.4,23.3,24,18.2,24,12.1
		C24,5.5,18.6,0.1,12,0.1z"/>
</g>
</svg>
