<?xml version="1.0" encoding="utf-8"?>
<!-- Generator: Adobe Illustrator 19.1.0, SVG Export Plug-In . SVG Version: 6.00 Build 0)  -->
<svg version="1.1" id="Layer_1" xmlns="http://www.w3.org/2000/svg" xmlns:xlink="http://www.w3.org/1999/xlink" x="0px" y="0px"
	 viewBox="0 0 24 24" style="enable-background:new 0 0 24 24;" xml:space="preserve">
<style type="text/css">
	.st0{fill:#AAAAAA;}
</style>
<g>
	<g>
		<g>
			<path class="st0" d="M14.2,10.3c-1,0-1.5,0.6-1.7,1v-0.8h-1.9c0,0.5,0,5.8,0,5.8h1.9V13c0-0.2,0-0.3,0.1-0.5
				c0.1-0.3,0.5-0.7,1-0.7c0.7,0,1,0.5,1,1.3v3.1h1.9h0v-3.3C16.4,11.1,15.5,10.3,14.2,10.3z M12.4,11.3L12.4,11.3
				C12.4,11.3,12.4,11.3,12.4,11.3L12.4,11.3z"/>
			<rect x="7.5" y="10.4" class="st0" width="1.9" height="5.8"/>
			<path class="st0" d="M12,0C5.4,0,0,5.4,0,12c0,6.6,5.4,12,12,12c6.6,0,12-5.4,12-12C24,5.4,18.6,0,12,0z M18.4,17.4
				c0,0.5-0.4,0.9-0.9,0.9H6.5c-0.5,0-0.9-0.4-0.9-0.9v-11c0-0.5,0.4-0.9,0.9-0.9h10.9c0.5,0,0.9,0.4,0.9,0.9
				C18.4,6.4,18.4,17.4,18.4,17.4z"/>
			<path class="st0" d="M8.5,7.6c-0.7,0-1.1,0.4-1.1,1c0,0.6,0.4,1,1.1,1h0c0.7,0,1.1-0.4,1.1-1C9.6,8.1,9.1,7.6,8.5,7.6z"/>
		</g>
	</g>
</g>
</svg>
